<svg version="1.1" xmlns="http://www.w3.org/2000/svg" xmlns:xlink="http://www.w3.org/1999/xlink" width="569.82887" height="263.1915" viewBox="0,0,569.82887,263.1915"><g transform="translate(48.22545,-142)"><g data-paper-data="{&quot;isPaintingLayer&quot;:true}" fill-rule="nonzero" stroke="none" stroke-width="0.5" stroke-linecap="butt" stroke-linejoin="miter" stroke-miterlimit="10" stroke-dasharray="" stroke-dashoffset="0" style="mix-blend-mode: normal"><path d="M68.65625,144.5c0,-1.38071 1.11929,-2.5 2.5,-2.5c1.38071,0 2.5,1.11929 2.5,2.5c0,1.38071 -1.11929,2.5 -2.5,2.5c-1.38071,0 -2.5,-1.11929 -2.5,-2.5z" fill="#9966ff"/><path d="M-1.84375,176c0.93567,0 1.52115,0.35019 1.8875,0.78844l0.45511,-0.36409l0.23721,0.29651c2.57168,-3.41149 6.57845,-5.49442 10.12735,-8.0287c2.40517,-1.71754 4.45893,-3.9595 7.05824,-5.36604c6.49997,-3.51728 14.60566,-6.28294 21.92913,-7.30738c4.24743,-0.59415 9.02474,-0.01873 13.30546,-0.01873c0.34691,0 10.09382,-0.00472 10.27279,0.01493c6.44106,0.70705 12.87625,3.16242 19.0177,5.08162c2.88702,0.90376 5.69291,2.04898 8.54824,3.04834c1.08591,0.38006 9.19102,2.6695 9.95129,3.04189c0.97587,0.47799 1.49155,1.64202 2.45472,2.14513c4.18729,2.18719 9.51908,2.82973 13.91519,4.5908c7.35248,2.94539 15.15282,6.53792 22.06956,10.40052c11.03476,6.16228 21.8103,12.84347 32.90207,18.94752c11.92189,5.55951 23.12818,12.79974 35.8029,16.54471c20.33293,6.00773 41.12846,5.18454 62.06554,5.18454c11.33333,0 22.66667,0 34,0c9.82735,0 19.86859,0.3202 29.63883,-0.97618c12.83363,-1.70286 25.7523,-3.86087 38.29509,-7.06531c4.14119,-1.03576 7.552,-0.25868 11.66563,-0.92623c6.87521,-1.11569 14.38451,-4.9464 20.88594,-7.38434c12.04907,-4.51823 24.47971,-8.88433 36.25928,-14.02096c6.49169,-2.83078 12.66648,-6.22844 19.4327,-8.4878c7.53675,-2.74103 15.75554,-5.87531 23.99474,-5.12511c3.08371,0.28078 6.34157,0.70138 9.00512,2.28049c0.40637,0.24092 7.31469,6.54234 7.90376,7.08231c3.67057,3.36458 6.98458,7.44619 8.32041,12.42825c0.4091,1.52577 0.70601,8.34778 1.03915,10.12654c0.76631,4.09168 2.62049,8.09408 3.04444,12.29554c0.6321,6.26429 0.01493,12.97817 0.01493,19.27279c0,6.4772 -0.72342,13.3338 -0.01217,19.75366c0.36241,3.27112 1.45534,6.42541 1.94545,9.67985c1.20282,7.98695 0.77058,16.22232 2.03542,24.17213c2.34199,14.72008 3.82379,29.27259 3.97809,44.22555c0.02795,6.24156 -1.49343,12.20408 -2.38613,18.42186c-1.30132,9.06379 -2.55503,17.904 -4.62282,26.89092c-1.45175,6.30952 -3.29036,9.29206 -8.56443,13.11607c-0.98873,0.71689 -1.8412,1.73761 -3.01152,2.08669c-0.55627,0.16592 -9.72799,0.79345 -10.65836,0.85939c-2.97528,0.21085 -5.89039,0.96969 -8.85876,1.26216c-4.95216,0.48794 -10.2657,0.02305 -15.24499,0.02839c-7.04426,0.00756 -14.18013,0.35443 -21.21307,0.00076c-0.30443,-0.01531 -10.21121,-0.92844 -10.38655,-0.96201c-1.05029,-0.20107 -1.96541,-0.89766 -3.01743,-1.08952c-4.50409,-0.82144 -9.2781,-0.32473 -13.81761,-0.96843c-3.27599,-0.46454 -6.44967,-1.5381 -9.7324,-1.95234c-11.15508,-1.40763 -22.70398,-1.02513 -33.93273,-1.02513c-15.09235,0 -29.96495,-1.46228 -45.02202,-1.99685c-19.60388,-0.69599 -39.3595,-0.00315 -58.97798,-0.00315c-9.33195,0 -18.8072,0.4616 -28.12453,-0.0031c-8.32681,-0.4153 -16.70303,-1.66718 -25.00015,-2.4969c-16.64063,-1.66406 -33.23087,-3.20275 -49.78304,-5.59394c-13.76067,-1.98942 -27.47263,-5.73341 -41.337,-6.91807c-10.26353,-0.87698 -20.60753,-0.41167 -30.86855,-0.99056c-8.33241,-0.47009 -16.49437,-0.93267 -24.85674,-0.97028c-23.4419,-0.10546 -47.67786,-1.81584 -70.59514,-7.09187c-6.30145,-1.45072 -12.50005,-2.9511 -18.73562,-4.57934c-1.28943,-0.3367 -2.83708,0.06473 -3.93889,-0.68495c-1.64131,-1.11674 -2.53561,-3.05527 -3.80341,-4.5829c-1.58434,-2.03773 -4.88475,-6.13269 -6.13559,-8.36287c-2.44023,-4.35083 -4.03179,-9.38355 -6.10519,-13.92369c-4.98952,-10.92561 -7.19495,-22.56563 -8.99327,-34.35255c-2.29884,-15.06754 -2.64508,-30.01484 -1.37623,-45.19843c1.36684,-9.40526 4.2729,-19.03387 9.5566,-27.11202c1.43915,-2.20029 3.60068,-3.86639 5.04327,-6.06442c1.47,-2.23981 2.4404,-4.79096 3.98585,-6.9794c0.94001,-1.33111 2.1969,-2.42988 3.06267,-3.81042c2.36715,-3.77462 4.39399,-8.27368 6.60199,-12.17454c2.61195,-4.61453 5.03442,-10.77977 5.93526,-16.0102c0.2014,-1.16937 -0.39952,-2.50881 0.15802,-3.55625c0.89333,-1.67829 2.62231,-2.7536 3.93347,-4.13039c1.62541,-0.66746 3.25082,-1.33492 4.87623,-2.00238v-0.91052c0,0 0,-2.5 2.5,-2.5zM-6.46752,185.5871c-2.74289,2.48152 -1.82454,4.1086 -3.00452,7.70347c-1.6312,4.96955 -2.81465,9.659 -5.42172,14.27919c-2.22582,3.94454 -4.31551,8.51322 -6.69806,12.33727c-0.90097,1.44607 -2.19918,2.60815 -3.18428,3.99826c-1.55864,2.19945 -2.52876,4.77104 -4.01415,7.0206c-1.42035,2.15106 -3.54481,3.77897 -4.95673,5.93558c-4.86351,7.42864 -7.522,16.31228 -8.78249,24.95707c-1.22487,14.74108 -0.87917,29.24888 1.35143,43.8765c1.72649,11.32182 3.79146,22.53448 8.59745,33.0269c2.02227,4.415 3.55278,9.32377 5.92079,13.56042c1.0314,1.84529 4.46708,6.12606 5.71973,7.73603c0.77867,1.10354 1.23232,2.53215 2.336,3.31062c0.70245,0.49546 1.73787,-0.04556 2.57427,0.15278c6.23953,1.47961 12.47252,3.13573 18.75122,4.58294c22.5524,5.19821 46.41752,6.85873 69.4873,6.96248c8.42849,0.03791 16.66217,0.49612 25.06082,0.97537c10.34769,0.59046 20.78087,0.11635 31.13145,1.00944c13.94407,1.20314 27.72198,4.94753 41.56243,6.94543c16.47978,2.38073 32.99763,3.91058 49.56566,5.56738c8.21418,0.82142 16.50833,2.06715 24.7517,2.47829c9.23367,0.46054 18.62712,-0.0031 27.87547,-0.0031c19.67781,0 39.49211,-0.69181 59.15538,0.0063c14.99828,0.53248 29.81181,1.9937 44.84462,1.9937c11.4053,0 23.12344,-0.3712 34.45566,1.05255c2.20838,0.27745 7.59412,1.64485 9.87921,1.96998c4.66882,0.66429 9.53918,0.19948 14.18239,1.03157c1.06833,0.19145 1.99932,0.89253 3.06471,1.09976c9.8269,1.91144 20.55785,0.8535 30.51245,0.84282c4.81071,-0.00516 9.9708,0.47779 14.755,-0.0038c3.01398,-0.3034 5.97648,-1.0566 8.99788,-1.27406c3.09467,-0.22273 6.29449,0.23981 9.29082,-0.56555c0.73382,-0.19724 1.16931,-0.97187 1.77888,-1.42554c4.36897,-3.25158 5.45815,-4.87218 6.64464,-10.18946c1.97949,-8.87119 3.27841,-17.55317 4.54928,-26.49232c0.84199,-5.92244 2.4379,-11.73517 2.33615,-17.66316c-0.1518,-14.71043 -1.6409,-29.00573 -3.91576,-43.48843c-1.25242,-7.97342 -0.8368,-16.2118 -2.04226,-24.21625c-0.14553,-0.96633 -1.88983,-9.13732 -1.97687,-9.93176c-0.72212,-6.59104 -0.01217,-13.60097 -0.01217,-20.24634c0,-6.11367 0.62207,-12.64256 0.01493,-18.72721c-0.40218,-4.0305 -2.23011,-7.87499 -2.96549,-11.80372c-0.60226,-3.21757 -0.11746,-6.60864 -0.95093,-9.7742c-1.07269,-4.07413 -3.87279,-7.40847 -6.88079,-10.11829c-2.32499,-2.09452 -4.22919,-4.73229 -6.89504,-6.37115c-2.07734,-1.27707 -4.68454,-1.48274 -7.11216,-1.71271c-7.46867,-0.70752 -15.07618,2.39142 -21.88798,4.86809c-6.64929,2.21239 -12.70218,5.57265 -19.08047,8.34993c-11.86479,5.16624 -24.36911,9.56923 -36.50097,14.11885c-6.82753,2.56042 -14.62083,6.46651 -21.84064,7.63813c-4.11342,0.66752 -7.21077,-0.21715 -11.22889,0.83519c-12.73172,3.25271 -25.8478,5.45817 -38.87684,7.1777c-9.9926,1.31879 -20.24414,1.01939 -30.29473,1.01939c-11.33333,0 -22.66667,0 -34,0c-21.42854,0 -42.67241,0.75613 -63.482,-5.38937c-12.97806,-3.83269 -24.45007,-11.18428 -36.64956,-16.88137c-11.16172,-6.13368 -22.00282,-12.84392 -33.09793,-19.05248c-6.71933,-3.75997 -14.32314,-7.24966 -21.46994,-10.11265c-4.65645,-1.86536 -10.08233,-2.60601 -14.54531,-4.89603c-0.94482,-0.4848 -1.43862,-1.63362 -2.38876,-2.10792c-2.86145,-1.42839 -6.18608,-1.65015 -9.20524,-2.70507c-2.79413,-0.97629 -5.53665,-2.10479 -8.36216,-2.98616c-5.8242,-1.82006 -11.96164,-4.21314 -18.0719,-4.88388c-3.22305,-0.3538 -6.4848,0.01493 -9.72721,0.01493c-4.05498,0 -8.67749,-0.60628 -12.69454,-0.01873c-6.69607,0.9794 -14.11167,3.49517 -20.07087,6.69262c-2.45251,1.31591 -4.35661,3.46898 -6.62125,5.08695c-3.51826,2.51363 -6.85773,4.99047 -10.3808,7.27593l0.23354,0.29193l-3.88879,3.11103c-0.43024,0.35027 -0.97924,0.56027 -1.57729,0.56027c-0.14743,0 -0.29189,-0.01276 -0.43232,-0.03724c-1.39715,0.54145 -2.7943,1.0829 -4.19146,1.62435z" fill="#000000"/></g></g></svg>